<svg xmlns="http://www.w3.org/2000/svg" width="21" height="20" viewBox="0 0 21 20" fill="none">
  <g clip-path="url(#clip0_1_984)">
    <path d="M20.3334 10C20.3334 4.47715 15.8562 0 10.3334 0C4.81052 0 0.333374 4.47715 0.333374 10C0.333374 14.9912 3.99021 19.1283 8.77087 19.8785V12.8906H6.23181V10H8.77087V7.79688C8.77087 5.29063 10.2638 3.90625 12.548 3.90625C13.6418 3.90625 14.7865 4.10156 14.7865 4.10156V6.5625H13.5256C12.2834 6.5625 11.8959 7.3334 11.8959 8.125V10H14.6693L14.226 12.8906H11.8959V19.8785C16.6765 19.1283 20.3334 14.9912 20.3334 10Z" fill="#333333"/>
  </g>
  <defs>
    <clipPath id="clip0_1_984">
      <rect width="20" height="20" fill="white" transform="translate(0.333374)"/>
    </clipPath>
  </defs>
</svg>