<svg xmlns="http://www.w3.org/2000/svg" width="21" height="20" viewBox="0 0 21 20" fill="none">
  <g clip-path="url(#clip0_1_990)">
    <path d="M18.8529 0H1.80994C0.99353 0 0.333374 0.644531 0.333374 1.44141V18.5547C0.333374 19.3516 0.99353 20 1.80994 20H18.8529C19.6693 20 20.3334 19.3516 20.3334 18.5586V1.44141C20.3334 0.644531 19.6693 0 18.8529 0ZM6.26697 17.043H3.29822V7.49609H6.26697V17.043ZM4.78259 6.19531C3.82947 6.19531 3.05994 5.42578 3.05994 4.47656C3.05994 3.52734 3.82947 2.75781 4.78259 2.75781C5.73181 2.75781 6.50134 3.52734 6.50134 4.47656C6.50134 5.42188 5.73181 6.19531 4.78259 6.19531ZM17.3763 17.043H14.4115V12.4023C14.4115 11.2969 14.392 9.87109 12.8685 9.87109C11.3256 9.87109 11.0912 11.0781 11.0912 12.3242V17.043H8.13025V7.49609H10.974V8.80078H11.0131C11.4076 8.05078 12.3763 7.25781 13.8177 7.25781C16.8217 7.25781 17.3763 9.23438 17.3763 11.8047V17.043Z" fill="#333333"/>
  </g>
  <defs>
    <clipPath id="clip0_1_990">
      <rect width="20" height="20" fill="white" transform="translate(0.333374)"/>
    </clipPath>
  </defs>
</svg>