<svg xmlns="http://www.w3.org/2000/svg" width="20" height="20" viewBox="0 0 20 20" fill="none">
  <path fill-rule="evenodd" clip-rule="evenodd" d="M9.61646 18.6259C9.64163 18.6405 9.66141 18.6517 9.67542 18.6596L9.69869 18.6726C9.88441 18.7745 10.1148 18.7738 10.3007 18.6729L10.3246 18.6596C10.3386 18.6517 10.3584 18.6405 10.3835 18.6259C10.4339 18.5967 10.5058 18.5542 10.5963 18.4985C10.7771 18.3872 11.0323 18.223 11.3372 18.0076C11.9459 17.5776 12.7581 16.9395 13.5721 16.1061C15.1922 14.4474 16.875 11.9551 16.875 8.75C16.875 4.95304 13.797 1.875 10 1.875C6.20304 1.875 3.125 4.95304 3.125 8.75C3.125 11.9551 4.80777 14.4474 6.42788 16.1061C7.24188 16.9395 8.05409 17.5776 8.66282 18.0076C8.96771 18.223 9.22295 18.3872 9.40375 18.4985C9.49419 18.5542 9.56612 18.5967 9.61646 18.6259ZM10 11.25C11.3807 11.25 12.5 10.1307 12.5 8.75C12.5 7.36929 11.3807 6.25 10 6.25C8.61929 6.25 7.5 7.36929 7.5 8.75C7.5 10.1307 8.61929 11.25 10 11.25Z" fill="#262626"/>
</svg>