<svg xmlns="http://www.w3.org/2000/svg" width="21" height="20" viewBox="0 0 21 20" fill="none">
  <g clip-path="url(#clip0_1_987)">
    <path d="M6.62517 18.125C14.1705 18.125 18.2986 11.8723 18.2986 6.45161C18.2986 6.27583 18.2947 6.09614 18.2869 5.92036C19.0899 5.33961 19.783 4.62027 20.3334 3.79614C19.5855 4.12889 18.7914 4.34621 17.9783 4.44067C18.8344 3.92748 19.4755 3.12129 19.7826 2.17153C18.9772 2.64886 18.0964 2.98557 17.1779 3.16724C16.5591 2.5097 15.7409 2.07432 14.8498 1.92844C13.9587 1.78255 13.0444 1.93427 12.2482 2.36014C11.4519 2.78601 10.8182 3.46232 10.4449 4.28449C10.0716 5.10666 9.97956 6.02891 10.183 6.90864C8.55212 6.8268 6.95665 6.40315 5.50003 5.66514C4.0434 4.92714 2.75812 3.89126 1.72751 2.62466C1.20371 3.52776 1.04342 4.59643 1.27923 5.61347C1.51504 6.63051 2.12926 7.5196 2.99705 8.10005C2.34556 8.07937 1.70835 7.90396 1.13806 7.58833V7.63911C1.13748 8.58685 1.46512 9.50555 2.0653 10.239C2.66548 10.9725 3.50114 11.4755 4.43025 11.6625C3.82675 11.8277 3.19336 11.8517 2.57908 11.7329C2.84125 12.5479 3.35135 13.2608 4.03818 13.772C4.72501 14.2832 5.55431 14.5672 6.41033 14.5844C4.95706 15.726 3.16185 16.3452 1.31384 16.3422C0.986113 16.3417 0.658707 16.3216 0.333374 16.2821C2.21075 17.4865 4.39465 18.1262 6.62517 18.125Z" fill="#333333"/>
  </g>
  <defs>
    <clipPath id="clip0_1_987">
      <rect width="20" height="20" fill="white" transform="translate(0.333374)"/>
    </clipPath>
  </defs>
</svg>