<svg xmlns="http://www.w3.org/2000/svg" width="95" height="34" viewBox="0 0 95 34" fill="none">
  <g clip-path="url(#clip0_1_82)">
    <path d="M11.0483 4.25H0.681885V29.0417L11.0483 4.25Z" fill="#4C4C4D"/>
    <path d="M18.342 4.25H28.695V29.0417L18.342 4.25Z" fill="#4C4C4D"/>
    <path d="M14.695 13.3877L21.293 29.042H16.9641L14.9921 24.058H10.1635L14.695 13.3877Z" fill="#4C4C4D"/>
    <path d="M45.6074 20.0148L46.8298 23.5198C46.8703 23.6076 46.9311 23.6482 47.0392 23.6482H49.3893C49.5177 23.6482 49.5379 23.5874 49.5177 23.4591L44.662 9.97255C44.6417 9.8645 44.6214 9.84424 44.5134 9.84424H41.5959C41.5149 9.84424 41.4676 9.90502 41.4676 9.99281C41.4271 10.7019 41.3663 10.918 41.2785 11.1274L36.9496 23.4388C36.9293 23.5874 36.9766 23.6482 37.0982 23.6482H39.1985C39.3268 23.6482 39.3876 23.6076 39.4349 23.4793L40.5897 20.0148H45.6074ZM41.2583 17.7254C41.8931 15.8075 42.7305 13.3492 43.0682 11.9445H43.0884C43.5071 13.4168 44.4931 16.3342 44.9389 17.7254H41.2583Z" fill="#4C4C4D"/>
    <path d="M55.76 23.8566C57.0229 23.8566 58.3668 23.627 59.731 23.0394C59.8391 22.9989 59.8593 22.9516 59.8593 22.8503C59.8188 22.4721 59.7716 21.9251 59.7716 21.5064V8.81004C59.7716 8.729 59.7716 8.68848 59.6703 8.68848H57.3809C57.2931 8.68848 57.2525 8.729 57.2525 8.83705V13.139C56.8946 13.0984 56.6447 13.0782 56.3476 13.0782C52.6535 13.0782 50.3843 15.5161 50.3843 18.5619C50.3843 22.0939 52.7143 23.8566 55.76 23.8566ZM57.2525 21.5064C56.8743 21.628 56.4556 21.6752 56.0302 21.6752C54.3553 21.6752 52.9844 20.7298 52.9844 18.4336C52.9844 16.4008 54.3959 15.1987 56.2665 15.1987C56.6447 15.1987 56.9756 15.2393 57.2525 15.3473V21.5064Z" fill="#4C4C4D"/>
    <path d="M67.1615 13.0796C64.0076 13.0796 62.0559 15.4973 62.0559 18.4823C62.0559 21.1499 63.6092 23.858 67.1142 23.858C70.0789 23.858 72.159 21.6766 72.159 18.4148C72.159 15.5378 70.3963 13.0796 67.1615 13.0796ZM67.0331 15.2002C68.816 15.2002 69.5724 16.7332 69.5724 18.4823C69.5724 20.6434 68.4581 21.7172 67.1615 21.7172C65.5609 21.7172 64.6154 20.3732 64.6154 18.435C64.6154 16.4428 65.6217 15.2002 67.0331 15.2002Z" fill="#4C4C4D"/>
    <path d="M74.5269 8.68848C74.4391 8.68848 74.3783 8.729 74.3783 8.83705V23.2082C74.3783 23.269 74.4391 23.3771 74.5269 23.3973C75.5331 23.708 76.5866 23.8566 77.6739 23.8566C80.7872 23.8566 83.8128 21.9251 83.8128 18.0352C83.8128 15.219 81.8813 13.0782 78.8558 13.0782C78.1602 13.0782 77.5119 13.1862 76.9446 13.3753L76.9176 8.85731C76.9176 8.70874 76.877 8.68848 76.7285 8.68848H74.5269ZM81.2262 18.2918C81.2262 20.6217 79.6324 21.7157 77.9103 21.7157C77.5524 21.7157 77.235 21.6955 76.9446 21.6077V15.4756C77.2755 15.3473 77.6739 15.2393 78.4101 15.2393C80.0714 15.2393 81.2262 16.2928 81.2262 18.2918Z" fill="#4C4C4D"/>
    <path d="M92.3568 19.0496C93.3833 19.0496 94.2275 19.0293 94.5179 18.9618C94.626 18.9415 94.6665 18.901 94.6868 18.8132C94.7475 18.5836 94.7745 18.1041 94.7745 17.5166C94.7745 15.5176 93.5724 13.0796 90.4659 13.0796C87.2918 13.0796 85.5292 15.6661 85.5292 18.5836C85.5292 21.1701 86.8934 23.858 90.7158 23.858C92.1475 23.858 93.0727 23.6284 93.8696 23.2502C93.9506 23.2097 93.9911 23.1421 93.9911 23.0206V21.2714C93.9911 21.1701 93.9304 21.1499 93.8696 21.1904C93.0727 21.5281 92.2083 21.6969 91.2628 21.6969C89.122 21.6969 88.1495 20.5151 88.0887 19.0496H92.3568ZM88.0887 17.2397C88.2575 16.2132 88.9059 15.0989 90.3578 15.0989C91.9584 15.0989 92.3771 16.4428 92.3771 17.0506C92.3771 17.0708 92.3771 17.1586 92.3771 17.2194C92.2893 17.2397 92.0192 17.2397 91.2223 17.2397H88.0887Z" fill="#4C4C4D"/>
  </g>
  <defs>
    <clipPath id="clip0_1_82">
      <rect width="94.2083" height="34" fill="white" transform="translate(0.681519)"/>
    </clipPath>
  </defs>
</svg>