<svg xmlns="http://www.w3.org/2000/svg" width="79" height="34" viewBox="0 0 79 34" fill="none">
  <g clip-path="url(#clip0_1_77)">
    <path fill-rule="evenodd" clip-rule="evenodd" d="M48.6608 26.7792C44.1533 30.1016 37.6199 31.8743 31.9948 31.8743C24.1074 31.8743 17.0068 28.957 11.6349 24.1051C11.2129 23.7236 11.591 23.2036 12.0975 23.5007C17.8948 26.8738 25.063 28.903 32.4675 28.903C37.4612 28.903 42.9546 27.8698 48.0058 25.7258C48.7688 25.4016 49.407 26.2255 48.6608 26.7792Z" fill="#4C4C4D"/>
    <path fill-rule="evenodd" clip-rule="evenodd" d="M50.5348 24.6352C49.9608 23.8992 46.7262 24.2875 45.2743 24.4596C44.832 24.5137 44.7645 24.1288 45.1629 23.8519C47.7391 22.0388 51.9664 22.5621 52.4593 23.1699C52.9523 23.781 52.331 28.0184 49.9101 30.0409C49.5387 30.3515 49.1842 30.1861 49.3496 29.7741C49.8932 28.4168 51.1121 25.3747 50.5348 24.6352Z" fill="#4C4C4D"/>
    <path fill-rule="evenodd" clip-rule="evenodd" d="M45.3767 11.0526V9.29008C45.3767 9.02335 45.5793 8.8444 45.8224 8.8444H53.7131C53.9663 8.8444 54.1689 9.02672 54.1689 9.29008V10.7993C54.1656 11.0526 53.9528 11.3835 53.5747 11.9068L49.4858 17.7446C51.0052 17.7075 52.609 17.9337 53.9866 18.7103C54.2972 18.8859 54.3816 19.1425 54.4053 19.3957V21.2764C54.4053 21.533 54.1217 21.8335 53.8245 21.6782C51.3969 20.4053 48.1724 20.2668 45.4881 21.6917C45.2147 21.8403 44.9277 21.5431 44.9277 21.2865V19.5004C44.9277 19.2134 44.931 18.7238 45.218 18.2883L49.9551 11.4949H45.8325C45.5793 11.4949 45.3767 11.3159 45.3767 11.0526Z" fill="#4C4C4D"/>
    <path fill-rule="evenodd" clip-rule="evenodd" d="M16.5927 22.0496H14.1921C13.9625 22.0327 13.7801 21.8605 13.7632 21.6411V9.3205C13.7632 9.07402 13.9692 8.87818 14.2258 8.87818H16.4644C16.6974 8.88831 16.8831 9.06726 16.8999 9.29011V10.9007H16.9438C17.528 9.34413 18.6253 8.6182 20.1042 8.6182C21.6067 8.6182 22.5453 9.34413 23.2206 10.9007C23.8013 9.34413 25.1215 8.6182 26.5363 8.6182C27.5424 8.6182 28.6431 9.0335 29.3151 9.96539C30.0747 11.002 29.9194 12.5078 29.9194 13.828L29.9161 21.6039C29.9161 21.8504 29.7101 22.0496 29.4535 22.0496H27.0562C26.8165 22.0327 26.624 21.8403 26.624 21.6039V15.0739C26.624 14.554 26.6713 13.2574 26.5565 12.7644C26.3776 11.9372 25.8407 11.7042 25.1452 11.7042C24.5644 11.7042 23.9567 12.0925 23.7102 12.7138C23.4637 13.3351 23.4873 14.375 23.4873 15.0739V21.6039C23.4873 21.8504 23.2814 22.0496 23.0248 22.0496H20.6275C20.3844 22.0327 20.1953 21.8403 20.1953 21.6039L20.192 15.0739C20.192 13.6997 20.4182 11.6772 18.7131 11.6772C16.9877 11.6772 17.0553 13.6491 17.0553 15.0739V21.6039C17.0553 21.8504 16.8493 22.0496 16.5927 22.0496Z" fill="#4C4C4D"/>
    <path fill-rule="evenodd" clip-rule="evenodd" d="M60.9622 8.6182C64.5243 8.6182 66.4523 11.6772 66.4523 15.5669C66.4523 19.3248 64.3217 22.3062 60.9622 22.3062C57.4642 22.3062 55.5599 19.2472 55.5599 15.4352C55.5599 11.5996 57.4879 8.6182 60.9622 8.6182ZM60.9825 11.1336C59.2132 11.1336 59.1018 13.5444 59.1018 15.0469C59.1018 16.5528 59.0782 19.7671 60.9622 19.7671C62.8226 19.7671 62.9104 17.1741 62.9104 15.5939C62.9104 14.554 62.8665 13.3114 62.5525 12.3255C62.2824 11.4679 61.7455 11.1336 60.9825 11.1336Z" fill="#4C4C4D"/>
    <path fill-rule="evenodd" clip-rule="evenodd" d="M71.0713 22.0496H68.6808C68.4411 22.0327 68.2486 21.8403 68.2486 21.6039L68.2452 9.27998C68.2655 9.05376 68.4647 8.87818 68.7078 8.87818H70.9329C71.1422 8.88831 71.3144 9.03012 71.3617 9.22258V11.1066H71.4056C72.0775 9.42179 73.0195 8.6182 74.6773 8.6182C75.7544 8.6182 76.8045 9.00649 77.4798 10.0701C78.1078 11.056 78.1078 12.7138 78.1078 13.9057V21.6613C78.0807 21.8774 77.8815 22.0496 77.6452 22.0496H75.2378C75.0183 22.0327 74.836 21.8707 74.8124 21.6613V14.9693C74.8124 13.6221 74.9677 11.6502 73.3099 11.6502C72.7257 11.6502 72.1889 12.0419 71.9222 12.6361C71.5845 13.3891 71.5406 14.1387 71.5406 14.9693V21.6039C71.5372 21.8504 71.3279 22.0496 71.0713 22.0496Z" fill="#4C4C4D"/>
    <path fill-rule="evenodd" clip-rule="evenodd" d="M39.0865 16.1645C39.0865 17.0998 39.1101 17.8797 38.6374 18.7103C38.2559 19.3856 37.6481 19.8009 36.9762 19.8009C36.0544 19.8009 35.5142 19.0986 35.5142 18.062C35.5142 16.0159 37.3476 15.6445 39.0865 15.6445V16.1645ZM41.5074 22.0158C41.3487 22.1576 41.1191 22.1678 40.9401 22.0732C40.1433 21.4114 39.9981 21.1042 39.5625 20.4728C38.2457 21.8166 37.3105 22.2184 35.6054 22.2184C33.5829 22.2184 32.0129 20.9725 32.0129 18.4773C32.0129 16.5291 33.0663 15.2022 34.5722 14.5539C35.8755 13.9799 37.6954 13.8786 39.0865 13.72V13.4093C39.0865 12.8387 39.1304 12.1634 38.7927 11.6705C38.5023 11.2282 37.9419 11.0458 37.4455 11.0458C36.5305 11.0458 35.7168 11.5151 35.5176 12.4876C35.4771 12.7036 35.3184 12.9164 35.0989 12.9265L32.7725 12.6766C32.5767 12.6327 32.3572 12.4741 32.4146 12.1736C32.9481 9.35086 35.5007 8.5 37.7832 8.5C38.9514 8.5 40.4775 8.81063 41.3993 9.69525C42.5676 10.7858 42.4561 12.2411 42.4561 13.8246V17.5657C42.4561 18.6901 42.9221 19.183 43.361 19.7908C43.513 20.0069 43.5467 20.2668 43.3509 20.4289C42.8613 20.8375 41.9902 21.5972 41.5107 22.0226L41.5074 22.0158Z" fill="#4C4C4D"/>
    <path fill-rule="evenodd" clip-rule="evenodd" d="M7.61474 16.1645C7.61474 17.0997 7.63837 17.8797 7.16568 18.7103C6.78414 19.3856 6.17976 19.8009 5.50448 19.8009C4.58271 19.8009 4.04586 19.0986 4.04586 18.062C4.04586 16.0159 5.87926 15.6445 7.61474 15.6445V16.1645ZM10.0356 22.0158C9.87694 22.1576 9.64735 22.1678 9.4684 22.0732C8.67156 21.4114 8.52975 21.1042 8.09082 20.4728C6.77401 21.8166 5.84212 22.2184 4.13365 22.2184C2.11455 22.2184 0.541138 20.9725 0.541138 18.4773C0.541138 16.5291 1.59796 15.2022 3.10046 14.5539C4.40376 13.9799 6.22365 13.8786 7.61474 13.72V13.4093C7.61474 12.8387 7.65864 12.1634 7.32437 11.6705C7.03062 11.2281 6.47013 11.0458 5.97718 11.0458C5.06217 11.0458 4.24507 11.5151 4.04586 12.4876C4.00535 12.7036 3.84665 12.9164 3.63056 12.9265L1.30083 12.6766C1.105 12.6327 0.888909 12.474 0.942931 12.1735C1.47978 9.35086 4.02898 8.5 6.31144 8.5C7.47968 8.5 9.00583 8.81063 9.92759 9.69525C11.0958 10.7858 10.9844 12.2411 10.9844 13.8246V17.5657C10.9844 18.69 11.4504 19.183 11.8893 19.7908C12.0446 20.0068 12.0784 20.2668 11.8825 20.4289C11.393 20.8374 10.5218 21.5971 10.0424 22.0226L10.0356 22.0158Z" fill="#4C4C4D"/>
  </g>
  <defs>
    <clipPath id="clip0_1_77">
      <rect width="77.9166" height="34" fill="white" transform="translate(0.541748)"/>
    </clipPath>
  </defs>
</svg>