<svg xmlns="http://www.w3.org/2000/svg" width="92" height="34" viewBox="0 0 92 34" fill="none">
  <g clip-path="url(#clip0_1_93)">
    <path d="M32.2136 24.6319V14.3221H32.3973L39.9018 24.6319H42.2634V9.49177H39.6395V19.7756H39.4558L31.9512 9.49177H29.5896V24.6319H32.2136ZM49.6893 24.8656C53.1529 24.8656 55.2783 22.6323 55.2783 18.8927C55.2783 15.1791 53.1529 12.9197 49.6893 12.9197C46.2519 12.9197 44.1002 15.1791 44.1002 18.8927C44.1264 22.6323 46.2256 24.8656 49.6893 24.8656ZM49.6893 22.6842C47.8525 22.6842 46.8029 21.3078 46.8029 18.8927C46.8029 16.5035 47.8525 15.1011 49.6893 15.1011C51.526 15.1011 52.5756 16.5035 52.5756 18.8927C52.5756 21.3078 51.526 22.6842 49.6893 22.6842ZM57.6661 10.3488V13.2314H55.8294V15.3089H57.6661V21.5675C57.6661 23.8009 58.7157 24.6838 61.3922 24.6838C61.8907 24.6838 62.3893 24.6319 62.7829 24.554V22.5284C62.468 22.5544 62.2581 22.5803 61.8907 22.5803C60.7887 22.5803 60.2901 22.0869 60.2901 20.9443V15.3089H62.7829V13.2314H60.2901V10.3488H57.6661ZM64.3573 24.6319H66.9812V13.1534H64.3573V24.6319ZM65.6692 11.2577C66.5351 11.2577 67.2436 10.5565 67.2436 9.69952C67.2436 8.81657 66.5351 8.1154 65.6692 8.1154C64.8033 8.1154 64.0949 8.81657 64.0949 9.69952C64.0949 10.5565 64.8033 11.2577 65.6692 11.2577ZM74.1709 24.8656C77.6345 24.8656 79.76 22.6323 79.76 18.8927C79.76 15.1791 77.6345 12.9197 74.1709 12.9197C70.7335 12.9197 68.5818 15.1791 68.5818 18.8927C68.5818 22.6323 70.681 24.8656 74.1709 24.8656ZM74.1709 22.6842C72.3341 22.6842 71.2845 21.3078 71.2845 18.8927C71.2845 16.5035 72.3341 15.1011 74.1709 15.1011C75.9814 15.1011 77.0573 16.5035 77.0573 18.8927C77.031 21.3078 75.9814 22.6842 74.1709 22.6842ZM81.3081 24.6319H83.9321V17.9578C83.9321 16.2698 84.9292 15.205 86.4773 15.205C88.0779 15.205 88.8127 16.088 88.8127 17.8279V24.6319H91.4366V17.2047C91.4366 14.4519 90.0197 12.9197 87.4482 12.9197C85.7164 12.9197 84.5618 13.6988 84.0108 14.9973H83.8271V13.1534H81.2819C81.3081 13.1534 81.3081 24.6319 81.3081 24.6319Z" fill="#4C4C4D"/>
    <path fill-rule="evenodd" clip-rule="evenodd" d="M4.43026 8.52274C5.19397 9.13884 5.4702 9.0902 6.90013 8.99292L20.3707 8.18226C20.6632 8.18226 20.4194 7.89041 20.3219 7.85799L18.0795 6.25287C17.6571 5.9286 17.0721 5.53948 15.9834 5.63676L2.95158 6.59335C2.48036 6.64199 2.38286 6.88519 2.57785 7.06353L4.43026 8.52274ZM5.24271 11.6519V25.79C5.24271 26.552 5.61644 26.8276 6.47765 26.779L21.2806 25.9197C22.1418 25.871 22.2393 25.3522 22.2393 24.7361V10.6953C22.2393 10.0792 21.9956 9.73874 21.4756 9.78738L6.00642 10.6953C5.4377 10.744 5.24271 11.0358 5.24271 11.6519ZM19.8507 12.4139C19.9482 12.8355 19.8507 13.2732 19.4282 13.3219L18.7133 13.4678V23.9092C18.0958 24.2335 17.5271 24.428 17.0396 24.428C16.2759 24.428 16.0809 24.1848 15.5122 23.4715L10.8487 16.1592V23.2283L12.3273 23.5525C12.3273 23.5525 12.3273 24.4118 11.1412 24.4118L7.85883 24.6064C7.76133 24.4118 7.85883 23.9416 8.18381 23.8444L9.04501 23.6012V14.2623L7.85883 14.165C7.76133 13.7434 8.00507 13.1273 8.67128 13.0787L12.1973 12.8355L17.0558 20.2288V13.6948L15.8209 13.5489C15.7234 13.0301 16.1134 12.6409 16.5846 12.5923L19.8507 12.4139ZM1.86289 5.29628L15.4309 4.30726C17.0883 4.16134 17.5271 4.25862 18.567 5.02065L22.8893 8.05255C23.6043 8.57138 23.848 8.7173 23.848 9.28476V25.9359C23.848 26.9735 23.4743 27.5896 22.1418 27.6869L6.3964 28.6435C5.38896 28.6922 4.91773 28.5462 4.39776 27.8815L1.19667 23.7471C0.627954 22.9851 0.384216 22.4176 0.384216 21.7528V6.95004C0.384216 6.09073 0.774196 5.39356 1.86289 5.29628Z" fill="#4C4C4D"/>
  </g>
  <defs>
    <clipPath id="clip0_1_93">
      <rect width="91.375" height="34" fill="white" transform="translate(0.383972)"/>
    </clipPath>
  </defs>
</svg>