<svg xmlns="http://www.w3.org/2000/svg" width="100" height="34" viewBox="0 0 100 34" fill="none">
  <g clip-path="url(#clip0_1_69)">
    <path d="M15.2742 2.18066C7.05899 2.18066 0.398926 8.84054 0.398926 17.0558C0.398926 25.2713 7.05899 31.9307 15.2742 31.9307C23.4903 31.9307 30.1497 25.2713 30.1497 17.0558C30.1497 8.84108 23.4903 2.18137 15.274 2.18137L15.2742 2.18066ZM22.0959 23.6348C21.8295 24.0718 21.2575 24.2103 20.8205 23.9421C17.328 21.8088 12.9313 21.3256 7.75335 22.5086C7.25438 22.6223 6.75702 22.3097 6.64334 21.8106C6.52912 21.3114 6.8405 20.814 7.34071 20.7004C13.0071 19.4058 17.8676 19.9632 21.7886 22.3594C22.2256 22.6276 22.3641 23.1978 22.0959 23.6348ZM23.9166 19.5845C23.5809 20.1302 22.8668 20.3025 22.3215 19.9668C18.323 17.5091 12.228 16.7973 7.49862 18.2329C6.88527 18.4182 6.23745 18.0725 6.05129 17.4602C5.86656 16.8469 6.2124 16.2003 6.8247 16.0138C12.227 14.3746 18.943 15.1686 23.5347 17.9903C24.08 18.326 24.2523 19.0401 23.9166 19.5847V19.5845ZM24.0729 15.3668C19.2787 12.5193 11.3688 12.2574 6.79148 13.6467C6.05645 13.8696 5.27914 13.4547 5.05639 12.7196C4.83364 11.9842 5.24823 11.2075 5.98379 10.984C11.2383 9.38889 19.9732 9.69708 25.4929 12.9738C26.1555 13.3662 26.3722 14.2201 25.9796 14.8803C25.5888 15.5415 24.7327 15.7594 24.0736 15.3668H24.0729ZM40.8696 15.9125C38.3011 15.3001 37.8446 14.8702 37.8446 13.9669C37.8446 13.1136 38.6475 12.5393 39.8429 12.5393C41.0011 12.5393 42.1486 12.9754 43.3529 13.8732C43.3884 13.9003 43.4346 13.9112 43.479 13.9041C43.5252 13.8973 43.5643 13.8726 43.5909 13.8355L44.845 12.0677C44.8965 11.9949 44.8823 11.8945 44.813 11.8389C43.3795 10.6891 41.7667 10.1301 39.8802 10.1301C37.1074 10.1301 35.1695 11.7944 35.1695 14.1755C35.1695 16.7289 36.841 17.633 39.7293 18.331C42.1859 18.8971 42.6015 19.3713 42.6015 20.219C42.6015 21.1586 41.7631 21.7431 40.4131 21.7431C38.9139 21.7431 37.6901 21.2368 36.3223 20.0538C36.2886 20.0236 36.2424 20.0112 36.1997 20.0129C36.1536 20.0165 36.1127 20.0378 36.0843 20.0716L34.6774 21.7448C34.6188 21.8159 34.6259 21.9189 34.6934 21.9793C36.285 23.4003 38.2425 24.1499 40.3563 24.1499C43.344 24.1499 45.2749 22.5175 45.2749 19.9898C45.2802 17.857 44.003 16.6758 40.875 15.9148L40.8696 15.9125ZM52.0355 13.3795C50.7405 13.3795 49.6783 13.8897 48.8008 14.935V13.7584C48.8008 13.6655 48.7262 13.5898 48.6339 13.5898H46.3335C46.2412 13.5898 46.1666 13.6655 46.1666 13.7584V26.8322C46.1666 26.9245 46.2412 27.0009 46.3335 27.0009H48.6339C48.7262 27.0009 48.8008 26.9245 48.8008 26.8322V22.7058C49.6783 23.6881 50.7405 24.1695 52.0355 24.1695C54.4424 24.1695 56.8794 22.3168 56.8794 18.775C56.883 15.2326 54.4459 13.3793 52.0372 13.3793L52.0355 13.3795ZM54.2043 18.775C54.2043 20.5778 53.0941 21.8372 51.5026 21.8372C49.9306 21.8372 48.744 20.521 48.744 18.775C48.744 17.0289 49.9306 15.713 51.5026 15.713C53.0675 15.7129 54.2043 17.0003 54.2043 18.7749V18.775ZM63.1231 13.3795C60.0235 13.3795 57.5953 15.7662 57.5953 18.8136C57.5953 21.8283 60.0075 24.189 63.0858 24.189C66.1961 24.189 68.6314 21.8106 68.6314 18.775C68.6314 15.7498 66.2121 13.3799 63.1231 13.3799V13.3795ZM63.1231 21.855C61.4747 21.855 60.2313 20.5298 60.2313 18.7741C60.2313 17.0105 61.4321 15.7306 63.0858 15.7306C64.7449 15.7306 65.9954 17.0552 65.9954 18.8127C65.9954 20.576 64.7875 21.855 63.1231 21.855ZM75.2499 13.5898H72.7187V11.0025C72.7187 10.9098 72.6441 10.8341 72.5518 10.8341H70.2514C70.1591 10.8341 70.0827 10.9098 70.0827 11.0025V13.5898H68.9778C68.8855 13.5898 68.8109 13.6655 68.8109 13.7584V15.7349C68.8109 15.8276 68.8855 15.9035 68.9778 15.9035H70.0827V21.0183C70.0827 23.0842 71.1112 24.1322 73.1415 24.1322C73.9657 24.1322 74.6496 23.9616 75.2944 23.5957C75.3476 23.5673 75.3796 23.5105 75.3796 23.4501V21.5672C75.3796 21.5104 75.3494 21.4553 75.2997 21.4251C75.2499 21.3931 75.1878 21.3913 75.1363 21.418C74.694 21.64 74.2659 21.7431 73.7863 21.7431C73.0491 21.7431 72.7187 21.4073 72.7187 20.6577V15.9044H75.2499C75.3423 15.9044 75.4169 15.8287 75.4169 15.7358V13.7595C75.4205 13.6666 75.3459 13.5909 75.2517 13.5909L75.2499 13.5898ZM84.0675 13.6V13.2822C84.0675 12.3473 84.4263 11.9304 85.2292 11.9304C85.7088 11.9304 86.0943 12.0256 86.5259 12.1695C86.5792 12.1862 86.6343 12.1779 86.6769 12.1461C86.7213 12.1143 86.7462 12.0633 86.7462 12.0093V10.0713C86.7462 9.99727 86.7 9.93173 86.6272 9.90988C86.1724 9.77434 85.5898 9.63526 84.7159 9.63526C82.5932 9.63526 81.4688 10.8314 81.4688 13.0932V13.5799H80.3639C80.2715 13.5799 80.1952 13.6556 80.1952 13.7483V15.7349C80.1952 15.8276 80.2715 15.9035 80.3639 15.9035H81.4688V23.7911C81.4688 23.8853 81.5452 23.9599 81.6375 23.9599H83.9361C84.0302 23.9599 84.1048 23.8853 84.1048 23.7911V15.904H86.2524L89.5421 23.7911C89.169 24.6189 88.8013 24.7841 88.3004 24.7841C87.8954 24.7841 87.4673 24.6633 87.0322 24.4235C86.9913 24.4022 86.9416 24.3986 86.8989 24.4111C86.8545 24.427 86.8172 24.459 86.7995 24.5016L86.0197 26.2122C85.9824 26.2939 86.0143 26.3881 86.0925 26.4307C86.906 26.8712 87.6396 27.0595 88.5473 27.0595C90.2455 27.0595 91.1851 26.2673 92.0111 24.1393L96.0007 13.8302C96.022 13.7783 96.0149 13.7197 95.9829 13.6737C95.9527 13.628 95.9012 13.6005 95.8462 13.6005H93.4517C93.3789 13.6005 93.3149 13.6461 93.2918 13.7135L90.8388 20.7181L88.153 13.7088C88.1281 13.6437 88.066 13.6005 87.9967 13.6005H84.0675V13.6ZM78.9553 13.5898H76.655C76.5626 13.5898 76.4863 13.6655 76.4863 13.7584V23.7911C76.4863 23.8853 76.5626 23.9599 76.655 23.9599H78.9553C79.0477 23.9599 79.1241 23.8853 79.1241 23.7911V13.7591C79.1241 13.6662 79.0495 13.5905 78.9553 13.5905V13.5898ZM77.8185 9.02137C76.9072 9.02137 76.1683 9.75889 76.1683 10.67C76.1683 11.5816 76.9072 12.32 77.8185 12.32C78.7297 12.32 79.4669 11.5816 79.4669 10.67C79.4669 9.75907 78.7279 9.02137 77.8185 9.02137ZM97.9653 16.8158C97.0558 16.8158 96.3471 16.0848 96.3471 15.1972C96.3471 14.3096 97.0647 13.5703 97.9742 13.5703C98.8836 13.5703 99.5924 14.3011 99.5924 15.188C99.5924 16.0756 98.8748 16.8158 97.9653 16.8158ZM97.9742 13.7312C97.1446 13.7312 96.5176 14.3902 96.5176 15.1972C96.5176 16.0038 97.1411 16.654 97.9653 16.654C98.7948 16.654 99.4218 15.9955 99.4218 15.188C99.4218 14.3814 98.7984 13.7312 97.9742 13.7312ZM98.333 15.3544L98.7913 15.9953H98.404L97.9919 15.4073H97.6384V15.9953H97.3152V14.2964H98.0719C98.468 14.2964 98.7273 14.4984 98.7273 14.8384C98.7291 15.1169 98.5674 15.2871 98.3348 15.3544H98.333ZM98.0594 14.5879H97.6384V15.1253H98.0594C98.269 15.1253 98.3951 15.0224 98.3951 14.8563C98.3951 14.6816 98.269 14.5879 98.0594 14.5879Z" fill="#4C4C4D"/>
  </g>
  <defs>
    <clipPath id="clip0_1_69">
      <rect width="99.1667" height="34" fill="white" transform="translate(0.345337)"/>
    </clipPath>
  </defs>
</svg>