<svg xmlns="http://www.w3.org/2000/svg" width="69" height="34" viewBox="0 0 69 34" fill="none">
  <g clip-path="url(#clip0_1_65)">
    <path d="M0.643677 25.0714L7.6239 14.2099H1.47058C1.41843 13.897 1.39608 13.5544 1.39608 13.1744C1.39608 12.8094 1.41843 12.4742 1.47058 12.1688H11.4306L11.5573 12.504L4.52489 23.3878H11.1177C11.1699 23.7305 11.1922 24.088 11.1922 24.4456C11.1922 24.7883 11.1699 25.1161 11.1177 25.4289H0.770319L0.643677 25.0714Z" fill="#4C4C4D"/>
    <path d="M20.7873 16.6908C20.7873 15.6702 20.5266 14.9699 20.0125 14.5677C19.4985 14.1728 18.7461 13.9717 17.7628 13.9717C17.1594 13.9717 16.5932 14.0164 16.0717 14.1132C15.5428 14.2101 15.0362 14.3293 14.5297 14.4857C14.2019 13.9195 14.038 13.2342 14.038 12.4445C14.6265 12.2583 15.2672 12.1093 15.9749 12.005C16.6826 11.9007 17.3605 11.8486 18.0161 11.8486C19.7369 11.8486 21.048 12.2434 21.9494 13.0256C22.8434 13.8078 23.2978 15.0668 23.2978 16.7876V25.0864C22.6944 25.2205 21.9643 25.3695 21.1002 25.511C20.236 25.66 19.357 25.7271 18.463 25.7271C17.6212 25.7271 16.8539 25.6526 16.176 25.4961C15.4981 25.3397 14.9171 25.0939 14.4403 24.7437C13.9635 24.4011 13.5985 23.9615 13.3378 23.4252C13.077 22.8888 12.9504 22.2407 12.9504 21.4883C12.9504 20.7508 13.0994 20.0952 13.4048 19.5365C13.7028 18.9778 14.1125 18.5085 14.634 18.1434C15.148 17.771 15.744 17.4953 16.4219 17.3165C17.0923 17.1377 17.8 17.0409 18.545 17.0409C19.0963 17.0409 19.5507 17.0558 19.9008 17.0781C20.2509 17.1005 20.5489 17.1377 20.7948 17.1675V16.6908H20.7873ZM20.7873 19.2013C20.5266 19.164 20.1988 19.1342 19.804 19.097C19.4091 19.0597 19.0739 19.0448 18.7983 19.0448C17.7255 19.0448 16.9135 19.246 16.3548 19.6408C15.7961 20.0356 15.513 20.639 15.513 21.451C15.513 21.9651 15.6099 22.3748 15.7961 22.6653C15.9823 22.9558 16.2207 23.1793 16.5038 23.3358C16.7869 23.4922 17.0998 23.5891 17.4499 23.6189C17.7926 23.6561 18.1204 23.671 18.4332 23.671C18.8281 23.671 19.2378 23.6487 19.6624 23.604C20.087 23.5593 20.4595 23.4997 20.7873 23.4103V19.2013Z" fill="#4C4C4D"/>
    <path d="M26.0913 12.1693C26.2627 12.1321 26.4414 12.1097 26.6202 12.0948C26.799 12.0799 26.9853 12.0725 27.179 12.0725C27.3503 12.0725 27.5291 12.0799 27.7228 12.0948C27.909 12.1097 28.0952 12.1395 28.2666 12.1693C28.2815 12.2066 28.3038 12.3109 28.3336 12.4896C28.356 12.6684 28.3858 12.8621 28.4081 13.0707C28.4305 13.2793 28.4603 13.473 28.4826 13.6667C28.505 13.8604 28.5199 13.9796 28.5199 14.0317C28.6912 13.7561 28.8998 13.4879 29.1382 13.2272C29.3766 12.9664 29.6671 12.7355 30.0023 12.5269C30.3376 12.3183 30.7175 12.1544 31.1421 12.0352C31.5667 11.916 32.0361 11.8564 32.5501 11.8564C33.3248 11.8564 34.0474 11.9831 34.7104 12.2438C35.3735 12.5045 35.9396 12.8994 36.4164 13.4432C36.8932 13.987 37.2582 14.6798 37.5264 15.5142C37.7946 16.3485 37.9286 17.3393 37.9286 18.4791C37.9286 20.7586 37.3103 22.5391 36.0812 23.8204C34.8445 25.1017 33.1013 25.7498 30.8441 25.7498C30.4642 25.7498 30.0768 25.7275 29.682 25.6754C29.2872 25.6232 28.937 25.5562 28.6465 25.4668V31.5456C28.4379 31.5828 28.2219 31.6052 27.9835 31.6201C27.7526 31.635 27.5365 31.6424 27.3503 31.6424C27.1641 31.6424 26.948 31.635 26.7171 31.6201C26.4861 31.6052 26.2701 31.5754 26.0839 31.5456V12.1693H26.0913ZM28.654 23.2617C28.9817 23.3809 29.317 23.4703 29.6597 23.5224C30.0023 23.5746 30.4493 23.5969 31.008 23.5969C31.6263 23.5969 32.1999 23.5001 32.714 23.2989C33.228 23.0978 33.675 22.7924 34.0474 22.3826C34.4199 21.9655 34.7104 21.444 34.9265 20.8182C35.1425 20.1925 35.2468 19.4401 35.2468 18.5834C35.2468 17.2052 34.9935 16.1101 34.487 15.2981C33.9804 14.4861 33.146 14.0838 31.9914 14.0838C31.5593 14.0838 31.1496 14.1583 30.7473 14.3148C30.3525 14.4712 29.9949 14.7022 29.6895 15.015C29.3766 15.3279 29.1307 15.7153 28.937 16.1921C28.7434 16.6688 28.654 17.2276 28.654 17.8831V23.2617Z" fill="#4C4C4D"/>
    <path d="M41.117 14.1801H39.4334C39.3962 14.0386 39.3738 13.8821 39.3589 13.7034C39.3441 13.5246 39.3366 13.3458 39.3366 13.1744C39.3366 13.0031 39.3441 12.8243 39.3589 12.6455C39.3738 12.4667 39.4036 12.3028 39.4334 12.1688H43.6275V25.4364C43.4413 25.4736 43.2253 25.496 42.9943 25.5109C42.7634 25.5258 42.5474 25.5332 42.3611 25.5332C42.1898 25.5332 41.9886 25.5258 41.7502 25.5109C41.5193 25.496 41.3033 25.4662 41.117 25.4364V14.1801Z" fill="#4C4C4D"/>
    <path d="M49.1327 19.4324C49.17 20.8776 49.5425 21.9429 50.2576 22.6134C50.9728 23.2838 52.0306 23.619 53.4237 23.619C54.6454 23.619 55.815 23.403 56.9175 22.9709C57.0591 23.2317 57.1708 23.5445 57.2527 23.917C57.3421 24.2895 57.3868 24.6545 57.4092 25.0196C56.843 25.2579 56.2173 25.4442 55.5319 25.5634C54.854 25.6826 54.0941 25.7422 53.2672 25.7422C52.0604 25.7422 51.0249 25.5708 50.1608 25.2356C49.2966 24.9004 48.5889 24.4236 48.0302 23.8127C47.4715 23.2019 47.0618 22.4793 46.801 21.6375C46.5403 20.8031 46.4137 19.8868 46.4137 18.8811C46.4137 17.8978 46.5403 16.9815 46.7861 16.1248C47.032 15.2681 47.4193 14.5306 47.9334 13.8974C48.4474 13.2716 49.1029 12.765 49.8851 12.4C50.6674 12.0275 51.5985 11.8413 52.6638 11.8413C53.5801 11.8413 54.3772 11.9977 55.07 12.3106C55.7628 12.6235 56.3365 13.0481 56.8058 13.5919C57.2676 14.1358 57.6252 14.7839 57.8636 15.5288C58.102 16.2812 58.2286 17.0932 58.2286 17.9723C58.2286 18.2107 58.2212 18.4714 58.1988 18.7321C58.1839 19.0003 58.1616 19.2313 58.1467 19.4175H49.1327V19.4324ZM55.7032 17.5179C55.7032 17.0336 55.6362 16.5718 55.5096 16.1322C55.3829 15.6927 55.1892 15.3128 54.9434 14.985C54.6901 14.6572 54.3772 14.3965 53.9898 14.1954C53.6025 13.9942 53.1406 13.8974 52.6042 13.8974C51.5538 13.8974 50.7493 14.2177 50.1831 14.8509C49.6244 15.4916 49.2817 16.3781 49.1625 17.5179H55.7032Z" fill="#4C4C4D"/>
    <path d="M61.0595 12.1688C61.2458 12.1315 61.432 12.1092 61.6033 12.0943C61.7747 12.0794 61.9535 12.0719 62.1471 12.0719C62.3334 12.0719 62.5271 12.0794 62.7133 12.0943C62.8996 12.1092 63.0783 12.139 63.2273 12.1688C63.2795 12.4295 63.3316 12.7647 63.3838 13.1893C63.4359 13.614 63.4583 13.9715 63.4583 14.2621C63.8233 13.6736 64.3001 13.167 64.896 12.7349C65.492 12.3028 66.2518 12.0868 67.183 12.0868C67.3246 12.0868 67.4661 12.0943 67.6077 12.1017C67.7567 12.1092 67.8759 12.1241 67.9801 12.139C68.0174 12.2954 68.0397 12.4593 68.0546 12.6306C68.0695 12.802 68.077 12.9808 68.077 13.1744C68.077 13.383 68.0621 13.5991 68.0397 13.8226C68.0174 14.046 67.9801 14.2621 67.9503 14.4707C67.8088 14.4334 67.6673 14.4185 67.5257 14.4185C67.3767 14.4185 67.265 14.4185 67.1756 14.4185C66.7137 14.4185 66.2667 14.4856 65.8421 14.6122C65.4175 14.7388 65.0376 14.9698 64.7023 15.2976C64.3671 15.6253 64.0989 16.0723 63.8978 16.6459C63.6967 17.2121 63.5998 17.9496 63.5998 18.8436V25.4364C63.4136 25.4736 63.1975 25.496 62.9666 25.5109C62.7357 25.5258 62.5196 25.5332 62.3334 25.5332C62.1471 25.5332 61.9311 25.5258 61.7002 25.5109C61.4692 25.496 61.2458 25.4662 61.0372 25.4364V12.1688H61.0595Z" fill="#4C4C4D"/>
    <path d="M46.0634 4.36192H43.5604L45.3334 2.58892C45.1918 2.39524 45.0354 2.209 44.8715 2.03766C44.7002 1.86632 44.5214 1.70988 44.3202 1.57579L42.5473 3.34878V0.845729C42.3163 0.808481 42.0779 0.786133 41.8321 0.786133H41.8246C41.5788 0.786133 41.3404 0.808481 41.1095 0.845729V3.34878L39.3365 1.57579C39.1428 1.71733 38.9566 1.87377 38.7852 2.03766C38.6139 2.209 38.4649 2.38779 38.3234 2.58892L40.1038 4.36192H37.6007C37.6007 4.36192 37.5412 4.83124 37.5412 5.07707C37.5412 5.32291 37.5635 5.56129 37.6007 5.79223H40.1038L38.3308 7.56522C38.6064 7.9526 38.9491 8.29528 39.3439 8.57836L41.1169 6.80537V9.30842C41.3479 9.34566 41.5863 9.36801 41.8321 9.36801H41.8395C42.0854 9.36801 42.3238 9.34566 42.5547 9.30842V6.80537L44.3277 8.57836C44.5214 8.43682 44.7076 8.28038 44.879 8.11649C45.0503 7.94515 45.2067 7.76636 45.3408 7.56522L43.5678 5.79223H46.0709C46.1081 5.56129 46.1305 5.32291 46.1305 5.07707V5.06962C46.123 4.83124 46.1081 4.59285 46.0634 4.36192ZM42.9048 5.08452C42.9048 5.40485 42.8452 5.71029 42.7409 5.99337C42.4579 6.09766 42.1524 6.15726 41.8321 6.15726C41.5118 6.15726 41.2063 6.09766 40.9232 5.99337C40.819 5.71029 40.7594 5.40485 40.7594 5.08452V5.07707C40.7594 4.75674 40.819 4.45131 40.9232 4.16823C41.2063 4.06393 41.5118 4.00434 41.8321 4.00434C42.1524 4.00434 42.4579 4.06393 42.7409 4.16823C42.8452 4.45131 42.9048 4.75674 42.9048 5.08452Z" fill="#4C4C4D"/>
  </g>
  <defs>
    <clipPath id="clip0_1_65">
      <rect width="68" height="34" fill="white" transform="translate(0.642822)"/>
    </clipPath>
  </defs>
</svg>