<svg xmlns="http://www.w3.org/2000/svg" width="39" height="43" viewBox="0 0 39 43" fill="none">
  <path fill-rule="evenodd" clip-rule="evenodd" d="M13.0489 40.1274C9.32492 39.0757 5.42609 38.5452 1.64397 38.0592C0.829355 37.9573 0.0730442 38.5259 0.0148577 39.3269C-0.101515 40.1286 0.480691 40.8617 1.23712 40.9636C4.90286 41.4314 8.68465 41.9321 12.234 42.9445C12.9904 43.1641 13.8054 42.7121 14.0381 41.9344C14.2709 41.1574 13.8053 40.3476 13.0489 40.1274Z" fill="#262626"/>
  <path fill-rule="evenodd" clip-rule="evenodd" d="M24.3366 25.2172C18.3434 19.0624 11.5937 13.6998 5.71688 7.37979C5.19321 6.78954 4.26222 6.75792 3.68036 7.30894C3.09849 7.86054 3.04053 8.78807 3.6224 9.37832C9.49923 15.7165 16.2489 21.0966 22.2421 27.2696C22.8239 27.8458 23.7547 27.854 24.3366 27.2872C24.8602 26.721 24.9184 25.7934 24.3366 25.2172Z" fill="#262626"/>
  <path fill-rule="evenodd" clip-rule="evenodd" d="M35.5673 1.54341C35.7419 5.06616 35.9161 8.58891 36.0907 12.1123C36.0907 12.9192 36.7893 13.5422 37.6039 13.503C38.4185 13.4631 39 12.7763 39 11.9688C38.8254 8.44018 38.6512 4.91216 38.4767 1.38413C38.4185 0.577224 37.7201 -0.0417174 36.9055 0.00219986C36.1491 0.0461172 35.5092 0.737085 35.5673 1.54341Z" fill="#262626"/>
</svg>